<svg width="132" height="133" viewBox="0 0 132 133" fill="none" xmlns="http://www.w3.org/2000/svg">
<path d="M128 4.5L91.2329 41.2673" stroke="#F12E45" stroke-width="8" stroke-linecap="round" stroke-linejoin="round"/>
<path d="M91.2329 4.5L128 41.2673" stroke="#F12E45" stroke-width="8" stroke-linecap="round" stroke-linejoin="round"/>
<path d="M121.872 102.056V120.439C121.879 122.146 121.529 123.835 120.846 125.399C120.162 126.963 119.159 128.366 117.902 129.52C116.644 130.674 115.159 131.552 113.543 132.099C111.926 132.646 110.213 132.849 108.513 132.695C89.6568 130.646 71.5438 124.203 55.6296 113.882C40.8236 104.474 28.2707 91.9211 18.8623 77.1151C8.50609 61.1287 2.06117 42.9276 0.0497382 23.9863C-0.103395 22.2918 0.0979948 20.5839 0.641082 18.9714C1.18417 17.359 2.05705 15.8772 3.20416 14.6206C4.35127 13.364 5.74747 12.36 7.30387 11.6725C8.86027 10.985 10.5428 10.6291 12.2442 10.6275H30.6279C33.6018 10.5983 36.4849 11.6514 38.7397 13.5906C40.9946 15.5298 42.4674 18.2227 42.8836 21.1675C43.6596 27.0507 45.0986 32.8272 47.1732 38.3869C47.9976 40.5802 48.1761 42.9639 47.6873 45.2555C47.1986 47.5471 46.0632 49.6506 44.4156 51.3167L36.6332 59.0991C45.3566 74.4405 58.0591 87.143 73.4005 95.8664L81.1829 88.084C82.849 86.4364 84.9525 85.301 87.2441 84.8123C89.5358 84.3236 91.9194 84.502 94.1128 85.3265C99.6724 87.4011 105.449 88.84 111.332 89.616C114.309 90.0359 117.027 91.5353 118.971 93.8289C120.914 96.1225 121.947 99.0503 121.872 102.056Z" fill="#F12E45"/>
</svg>
