<svg width="126" height="19" viewBox="0 0 126 19" fill="none" xmlns="http://www.w3.org/2000/svg">
<path d="M77.7 7.1C77.7 8.1 76.8 9 75.8 9C74.8 9 73.9 8.1 73.9 7.1C73.9 6.1 74.8 5.2 75.8 5.2C76.9 5.2 77.7 6.1 77.7 7.1ZM83 9.5C83 14.7 78.8 19 73.5 19C68.3 19 64 14.8 64 9.5C64 4.2 68.2 0 73.5 0C78.7 0 83 4.2 83 9.5ZM80.6 9.5C80.6 5.6 77.4 2.4 73.5 2.4C69.6 2.4 66.4 5.6 66.4 9.5C66.4 13.4 69.6 16.6 73.5 16.6C77.4 16.6 80.6 13.4 80.6 9.5ZM71.1 10C70.1 10 69.2 10.9 69.2 11.9C69.2 12.9 70.1 13.8 71.1 13.8C72.1 13.8 73 12.9 73 11.9C73 10.9 72.2 10 71.1 10ZM71.1 5.2C70.1 5.2 69.2 6.1 69.2 7.1C69.2 8.1 70.1 9 71.1 9C72.1 9 73 8.1 73 7.1C73 6.1 72.2 5.2 71.1 5.2ZM75.9 10C74.9 10 74 10.9 74 11.9C74 12.9 74.9 13.8 75.9 13.8C76.9 13.8 77.8 12.9 77.8 11.9C77.8 10.9 76.9 10 75.9 10ZM111.8 3.7H108.7C108.6 3.7 108.5 3.8 108.5 3.9V14.8C108.5 14.9 108.6 15 108.7 15H111.8C111.9 15 112 14.9 112 14.8V3.9C112 3.8 111.9 3.7 111.8 3.7ZM126 10.7C126 13.1 124 15.2 121.2 15.2C118.5 15.2 116.5 13.2 116.5 10.8C116.5 8.4 118.5 6.3 121.3 6.3C124 6.3 126 8.3 126 10.7ZM122.6 10.7C122.6 9.9 122 9.2 121.3 9.2C120.5 9.2 120 9.9 120 10.7C120 11.5 120.6 12.2 121.3 12.2C122.1 12.2 122.6 11.6 122.6 10.7ZM116 3.7H112.9C112.8 3.7 112.7 3.8 112.7 3.9V5.7C112.7 5.8 112.8 5.9 112.9 5.9H116C116.1 5.9 116.2 5.8 116.2 5.7V3.9C116.1 3.8 116.1 3.7 116 3.7ZM107.6 3.7H104.5C104.4 3.7 104.3 3.8 104.3 3.9V5.7C104.3 5.8 104.4 5.9 104.5 5.9H107.6C107.7 5.9 107.8 5.8 107.8 5.7V3.9C107.8 3.8 107.7 3.7 107.6 3.7ZM116 6.5H112.9C112.8 6.5 112.7 6.6 112.7 6.7V14.8C112.7 14.9 112.8 15 112.9 15H116C116.1 15 116.2 14.9 116.2 14.8V6.7C116.1 6.6 116.1 6.5 116 6.5ZM107.6 6.5H101.3C101.2 6.5 101.1 6.6 101.1 6.6L100.2 9.8L99.1 6.5C99.1 6.4 99 6.4 98.9 6.4H96.5C96.4 6.4 96.3 6.5 96.3 6.5L95.2 9.8L94.3 6.6C94.3 6.5 94.2 6.5 94.1 6.5H89.1V3.8C89.1 3.7 89 3.6 88.9 3.6L85.8 4.6C85.7 4.6 85.7 4.7 85.7 4.8V6.5H85C84.9 6.5 84.8 6.6 84.8 6.7V9C84.8 9.1 84.9 9.2 85 9.2H85.9V12.1C85.9 14.2 87 15.1 89.1 15.1C90 15.1 90.8 14.9 91.3 14.6V12C91.3 11.9 91.2 11.9 91.2 11.9C91 12 90.7 12.1 90.3 12.1C89.7 12.1 89.4 11.8 89.4 11.2V9.1H91.2C91.3 9.1 91.4 9 91.4 8.9V7.1L93.7 14.8C93.7 14.9 93.8 14.9 93.9 14.9H96.6C96.7 14.9 96.8 14.8 96.8 14.8L97.9 11.3L99 14.8C99 14.9 99.1 14.9 99.2 14.9H101.9C102 14.9 102.1 14.8 102.1 14.8L104.4 7.1V14.7C104.4 14.8 104.5 14.9 104.6 14.9H107.7C107.8 14.9 107.9 14.8 107.9 14.7V6.6C107.8 6.6 107.7 6.5 107.6 6.5ZM2 9.5H1.1V12.9H0V4.6H2.2C4 4.6 5 5.5 5 7C5 8.7 3.8 9.5 2 9.5ZM2.1 5.6H1.1V8.5H2C3.1 8.5 3.8 8 3.8 7C3.9 6.1 3.3 5.6 2.1 5.6ZM8.2 13C6.7 13 5.6 11.9 5.6 10C5.6 8.1 6.7 7 8.2 7C9.7 7 10.9 8.1 10.9 10C10.9 11.9 9.7 13 8.2 13ZM8.2 7.9C7.2 7.9 6.7 8.8 6.7 10C6.7 11.2 7.2 12.1 8.2 12.1C9.3 12.1 9.8 11.2 9.8 10C9.8 8.8 9.2 7.9 8.2 7.9ZM17.7 12.9H16.9L15.6 8.6L14.3 12.9H13.5L11.7 7.3L12.7 7.1L14 11.3L15.3 7.2H16L17.3 11.3L18.5 7.2H19.5L17.7 12.9ZM25.1 10.1H21.2C21.2 11.4 21.9 12.1 22.9 12.1C23.7 12.1 24.3 11.8 25 11.3L25.2 12.3C24.6 12.8 23.9 13.1 22.9 13.1C21.4 13.1 20.2 12.2 20.2 10.1C20.2 8.3 21.3 7.1 22.7 7.1C24.4 7.1 25.1 8.4 25.1 10V10.1ZM22.7 7.9C22 7.9 21.5 8.4 21.3 9.4H24.1C23.9 8.4 23.5 7.9 22.7 7.9ZM27.6 9.5V12.9H26.5V7.2H27.4L27.6 8.4C28 7.8 28.7 7.2 29.6 7.1L29.8 8.1C28.7 8.1 27.9 8.7 27.6 9.5ZM35.2 10.1H31.3C31.3 11.4 32 12.1 33 12.1C33.8 12.1 34.4 11.8 35.1 11.3L35.3 12.3C34.7 12.8 34 13.1 33 13.1C31.5 13.1 30.3 12.2 30.3 10.1C30.3 8.3 31.4 7.1 32.8 7.1C34.5 7.1 35.2 8.4 35.2 10V10.1ZM32.8 7.9C32.1 7.9 31.6 8.4 31.4 9.4H34.2C34 8.4 33.6 7.9 32.8 7.9ZM40.5 12.9L40.3 12C39.9 12.5 39.3 12.9 38.4 12.9C37.2 12.9 36.1 12 36.1 10.1C36.1 8 37.3 7 38.7 7C39.3 7 39.8 7.1 40.1 7.3V4.3L41.2 4.1V12.8H40.5V12.9ZM40.3 8.3C39.9 8.1 39.5 8 38.9 8C38 8 37.4 8.7 37.4 10.1C37.4 11.4 38 12 38.7 12C39.4 12 39.9 11.6 40.3 11V8.3ZM47.9 12.9C47 12.9 46.4 12.8 45.7 12.5V4.3L46.8 4.1V7.7C47.2 7.3 47.7 6.9 48.5 6.9C49.7 6.9 50.8 7.8 50.8 9.7C50.7 11.9 49.5 12.9 47.9 12.9ZM48.3 8C47.7 8 47.2 8.4 46.7 8.9V11.8C47.1 11.9 47.3 12 47.9 12C49 12 49.6 11.3 49.6 9.9C49.6 8.6 49 8 48.3 8ZM54.3 13.4C53.8 14.7 53.2 15.1 52.2 15.1H51.8L51.7 14.2C51.9 14.2 52.1 14.3 52.3 14.3C52.7 14.3 53 14.1 53.2 13.6L53.4 13L51.3 7.3L52.4 7.1L54 11.7L55.5 7.2H56.6L54.3 13.4Z" fill="white"/>
</svg>
