<svg width="150" height="40" viewBox="0 0 150 40" fill="none" xmlns="http://www.w3.org/2000/svg">
<path d="M147 40H3C1.3 40 0 38.7 0 37V3C0 1.3 1.3 0 3 0H147C148.7 0 150 1.3 150 3V37C150 38.7 148.7 40 147 40Z" fill="white"/>
<path d="M89.7 18.1C89.7 19.1 88.8 20 87.8 20C86.8 20 85.9 19.1 85.9 18.1C85.9 17.1 86.8 16.2 87.8 16.2C88.9 16.2 89.7 17.1 89.7 18.1ZM95 20.5C95 25.7 90.8 30 85.5 30C80.3 30 76 25.8 76 20.5C76 15.2 80.2 11 85.5 11C90.7 11 95 15.2 95 20.5ZM92.6 20.5C92.6 16.6 89.4 13.4 85.5 13.4C81.6 13.4 78.4 16.6 78.4 20.5C78.4 24.4 81.6 27.6 85.5 27.6C89.4 27.6 92.6 24.4 92.6 20.5ZM83.1 21C82.1 21 81.2 21.9 81.2 22.9C81.2 23.9 82.1 24.8 83.1 24.8C84.1 24.8 85 23.9 85 22.9C85 21.9 84.2 21 83.1 21ZM83.1 16.2C82.1 16.2 81.2 17.1 81.2 18.1C81.2 19.1 82.1 20 83.1 20C84.1 20 85 19.1 85 18.1C85 17.1 84.2 16.2 83.1 16.2ZM87.9 21C86.9 21 86 21.9 86 22.9C86 23.9 86.9 24.8 87.9 24.8C88.9 24.8 89.8 23.9 89.8 22.9C89.8 21.9 88.9 21 87.9 21ZM123.8 14.7H120.7C120.6 14.7 120.5 14.8 120.5 14.9V25.8C120.5 25.9 120.6 26 120.7 26H123.8C123.9 26 124 25.9 124 25.8V14.9C124 14.8 123.9 14.7 123.8 14.7ZM138 21.7C138 24.1 136 26.2 133.2 26.2C130.5 26.2 128.5 24.2 128.5 21.8C128.5 19.4 130.5 17.3 133.3 17.3C136 17.3 138 19.3 138 21.7ZM134.6 21.7C134.6 20.9 134 20.2 133.3 20.2C132.5 20.2 132 20.9 132 21.7C132 22.5 132.6 23.2 133.3 23.2C134.1 23.2 134.6 22.6 134.6 21.7ZM128 14.7H124.9C124.8 14.7 124.7 14.8 124.7 14.9V16.7C124.7 16.8 124.8 16.9 124.9 16.9H128C128.1 16.9 128.2 16.8 128.2 16.7V14.9C128.1 14.8 128.1 14.7 128 14.7ZM119.6 14.7H116.5C116.4 14.7 116.3 14.8 116.3 14.9V16.7C116.3 16.8 116.4 16.9 116.5 16.9H119.6C119.7 16.9 119.8 16.8 119.8 16.7V14.9C119.8 14.8 119.7 14.7 119.6 14.7ZM128 17.5H124.9C124.8 17.5 124.7 17.6 124.7 17.7V25.8C124.7 25.9 124.8 26 124.9 26H128C128.1 26 128.2 25.9 128.2 25.8V17.7C128.1 17.6 128.1 17.5 128 17.5ZM119.6 17.5H113.3C113.2 17.5 113.1 17.6 113.1 17.6L112.2 20.8L111.1 17.5C111.1 17.4 111 17.4 110.9 17.4H108.5C108.4 17.4 108.3 17.5 108.3 17.5L107.2 20.8L106.3 17.6C106.3 17.5 106.2 17.5 106.1 17.5H101.1V14.8C101.1 14.7 101 14.6 100.9 14.6L97.8 15.6C97.7 15.6 97.7 15.7 97.7 15.8V17.5H97C96.9 17.5 96.8 17.6 96.8 17.7V20C96.8 20.1 96.9 20.2 97 20.2H97.9V23.1C97.9 25.2 99 26.1 101.1 26.1C102 26.1 102.8 25.9 103.3 25.6V23C103.3 22.9 103.2 22.9 103.2 22.9C103 23 102.7 23.1 102.3 23.1C101.7 23.1 101.4 22.8 101.4 22.2V20.1H103.2C103.3 20.1 103.4 20 103.4 19.9V18.1L105.7 25.8C105.7 25.9 105.8 25.9 105.9 25.9H108.6C108.7 25.9 108.8 25.8 108.8 25.8L109.9 22.3L111 25.8C111 25.9 111.1 25.9 111.2 25.9H113.9C114 25.9 114.1 25.8 114.1 25.8L116.4 18.1V25.7C116.4 25.8 116.5 25.9 116.6 25.9H119.7C119.8 25.9 119.9 25.8 119.9 25.7V17.6C119.8 17.6 119.7 17.5 119.6 17.5ZM14 20.5H13.1V23.9H12V15.6H14.2C16 15.6 17 16.5 17 18C17 19.7 15.8 20.5 14 20.5ZM14.1 16.6H13.1V19.5H14C15.1 19.5 15.8 19 15.8 18C15.9 17.1 15.3 16.6 14.1 16.6ZM20.2 24C18.7 24 17.6 22.9 17.6 21C17.6 19.1 18.7 18 20.2 18C21.7 18 22.9 19.1 22.9 21C22.9 22.9 21.7 24 20.2 24ZM20.2 18.9C19.2 18.9 18.7 19.8 18.7 21C18.7 22.2 19.2 23.1 20.2 23.1C21.3 23.1 21.8 22.2 21.8 21C21.8 19.8 21.2 18.9 20.2 18.9ZM29.7 23.9H28.9L27.6 19.6L26.3 23.9H25.5L23.7 18.3L24.7 18.1L26 22.3L27.3 18.2H28L29.3 22.3L30.5 18.2H31.5L29.7 23.9ZM37.1 21.1H33.2C33.2 22.4 33.9 23.1 34.9 23.1C35.7 23.1 36.3 22.8 37 22.3L37.2 23.3C36.6 23.8 35.9 24.1 34.9 24.1C33.4 24.1 32.2 23.2 32.2 21.1C32.2 19.3 33.3 18.1 34.7 18.1C36.4 18.1 37.1 19.4 37.1 21V21.1ZM34.7 18.9C34 18.9 33.5 19.4 33.3 20.4H36.1C35.9 19.4 35.5 18.9 34.7 18.9ZM39.6 20.5V23.9H38.5V18.2H39.4L39.6 19.4C40 18.8 40.7 18.2 41.6 18.1L41.8 19.1C40.7 19.1 39.9 19.7 39.6 20.5ZM47.2 21.1H43.3C43.3 22.4 44 23.1 45 23.1C45.8 23.1 46.4 22.8 47.1 22.3L47.3 23.3C46.7 23.8 46 24.1 45 24.1C43.5 24.1 42.3 23.2 42.3 21.1C42.3 19.3 43.4 18.1 44.8 18.1C46.5 18.1 47.2 19.4 47.2 21V21.1ZM44.8 18.9C44.1 18.9 43.6 19.4 43.4 20.4H46.2C46 19.4 45.6 18.9 44.8 18.9ZM52.5 23.9L52.3 23C51.9 23.5 51.3 23.9 50.4 23.9C49.2 23.9 48.1 23 48.1 21.1C48.1 19 49.3 18 50.7 18C51.3 18 51.8 18.1 52.1 18.3V15.3L53.2 15.1V23.8H52.5V23.9ZM52.3 19.3C51.9 19.1 51.5 19 50.9 19C50 19 49.4 19.7 49.4 21.1C49.4 22.4 50 23 50.7 23C51.4 23 51.9 22.6 52.3 22V19.3ZM59.9 23.9C59 23.9 58.4 23.8 57.7 23.5V15.3L58.8 15.1V18.7C59.2 18.3 59.7 17.9 60.5 17.9C61.7 17.9 62.8 18.8 62.8 20.7C62.7 22.9 61.5 23.9 59.9 23.9ZM60.3 19C59.7 19 59.2 19.4 58.7 19.9V22.8C59.1 22.9 59.3 23 59.9 23C61 23 61.6 22.3 61.6 20.9C61.6 19.6 61 19 60.3 19ZM66.3 24.4C65.8 25.7 65.2 26.1 64.2 26.1H63.8L63.7 25.2C63.9 25.2 64.1 25.3 64.3 25.3C64.7 25.3 65 25.1 65.2 24.6L65.4 24L63.3 18.3L64.4 18.1L66 22.7L67.5 18.2H68.6L66.3 24.4Z" fill="#0D122B"/>
</svg>
