<svg width="271" height="123" viewBox="0 0 271 123" fill="none" xmlns="http://www.w3.org/2000/svg">
<path d="M152.178 4.01562L266.165 118.003" stroke="#F12E45" stroke-width="8" stroke-linecap="round" stroke-linejoin="round"/>
<path d="M224.715 47.2274V19.5594C224.719 15.7047 223.291 11.9861 220.707 9.12542C218.123 6.26474 214.569 4.46612 210.734 4.07873C206.899 3.69134 203.056 4.74281 199.953 7.02902C196.849 9.31523 194.706 12.6731 193.939 16.4507M193.628 45.4658V61.0095C193.631 64.0818 194.544 67.0844 196.252 69.638C197.96 72.1917 200.387 74.1819 203.225 75.3572C206.064 76.5326 209.187 76.8404 212.2 76.2417C215.214 75.6431 217.982 74.1649 220.156 71.9938L193.628 45.4658Z" stroke="#F12E45" stroke-width="8" stroke-linecap="round" stroke-linejoin="round"/>
<path d="M245.441 50.6465V61.009C245.439 63.146 245.248 65.2786 244.871 67.382M235.078 86.6563C230.02 91.819 223.535 95.3528 216.455 96.8043C209.375 98.2558 202.022 97.5587 195.341 94.8027C188.659 92.0466 182.954 87.3571 178.956 81.3359C174.958 75.3147 172.85 68.2364 172.903 61.009V50.6465L235.078 86.6563Z" stroke="#F12E45" stroke-width="8" stroke-linecap="round" stroke-linejoin="round"/>
<path d="M209.172 97.2783V118.003" stroke="#F12E45" stroke-width="8" stroke-linecap="round" stroke-linejoin="round"/>
<path d="M188.447 118.003H229.897" stroke="#F12E45" stroke-width="8" stroke-linecap="round" stroke-linejoin="round"/>
<path d="M4 4.01562L117.988 118.003" stroke="#F12E45" stroke-width="8" stroke-linecap="round" stroke-linejoin="round"/>
<path d="M77.9884 78.0038C76.2687 80.517 74.0164 82.6203 71.3916 84.1642C68.7668 85.708 65.834 86.6545 62.8019 86.9363C59.7697 87.218 56.7128 86.8281 53.8484 85.7943C50.9841 84.7605 48.3827 83.1082 46.2295 80.955C44.0762 78.8017 42.4239 76.2003 41.3901 73.336C40.3563 70.4717 39.9664 67.4147 40.2481 64.3826C40.5299 61.3504 41.4764 58.4176 43.0202 55.7928C44.5641 53.168 46.6674 50.9157 49.1806 49.196M107.625 107.641H14.3625C11.6142 107.641 8.97846 106.549 7.03511 104.606C5.09176 102.662 4 100.026 4 97.2781V40.2842C4 37.5359 5.09176 34.9002 7.03511 32.9568C8.97846 31.0135 11.6142 29.9217 14.3625 29.9217H29.9063L107.625 107.641ZM45.4501 14.3779H76.5377L86.9002 29.9217H107.625C110.374 29.9217 113.009 31.0135 114.953 32.9568C116.896 34.9002 117.988 37.5359 117.988 40.2842V88.6772L45.4501 14.3779Z" stroke="#F12E45" stroke-width="8" stroke-linecap="round" stroke-linejoin="round"/>
</svg>
