<svg width="143" height="118" viewBox="0 0 143 118" fill="none" xmlns="http://www.w3.org/2000/svg">
<path d="M96.2576 114.909V102.475C96.2576 95.8795 93.6375 89.5541 88.9737 84.8903C84.3099 80.2265 77.9845 77.6064 71.3889 77.6064H27.8687C21.2731 77.6064 14.9477 80.2265 10.2839 84.8903C5.62009 89.5541 3 95.8795 3 102.475V114.909" stroke="#F12E45" stroke-width="5" stroke-linecap="round" stroke-linejoin="round"/>
<path d="M49.6289 52.7374C63.3635 52.7374 74.4976 41.6033 74.4976 27.8687C74.4976 14.1341 63.3635 3 49.6289 3C35.8943 3 24.7603 14.1341 24.7603 27.8687C24.7603 41.6033 35.8943 52.7374 49.6289 52.7374Z" stroke="#F12E45" stroke-width="5" stroke-linecap="round" stroke-linejoin="round"/>
<path d="M102.475 52.7381L114.909 65.1724L139.778 40.3037" stroke="#F12E45" stroke-width="5" stroke-linecap="round" stroke-linejoin="round"/>
</svg>
