<svg width="126" height="118" viewBox="0 0 126 118" fill="none" xmlns="http://www.w3.org/2000/svg">
<path d="M123.258 114.909V102.475C123.258 95.8795 120.637 89.5541 115.974 84.8903C111.31 80.2265 104.984 77.6064 98.3889 77.6064H54.8687C48.2731 77.6064 41.9477 80.2265 37.2839 84.8903C32.6201 89.5541 30 95.8795 30 102.475V114.909" stroke="#F12E45" stroke-width="5" stroke-linecap="round" stroke-linejoin="round"/>
<path d="M76.6285 52.7374C90.363 52.7374 101.497 41.6033 101.497 27.8687C101.497 14.1341 90.363 3 76.6285 3C62.8939 3 51.7598 14.1341 51.7598 27.8687C51.7598 41.6033 62.8939 52.7374 76.6285 52.7374Z" stroke="#F12E45" stroke-width="5" stroke-linecap="round" stroke-linejoin="round"/>
<path d="M2 27.5H30.125" stroke="#F12E45" stroke-width="4" stroke-linecap="round" stroke-linejoin="round"/>
<path d="M14.5 15L2 27.5L14.5 40" stroke="#F12E45" stroke-width="4" stroke-linecap="round" stroke-linejoin="round"/>
</svg>
