<svg width="73" height="61" viewBox="0 0 73 61" fill="none" xmlns="http://www.w3.org/2000/svg">
<path d="M49 43L36.5 30.5L24 43" stroke="#F12E45" stroke-width="4" stroke-linecap="round" stroke-linejoin="round"/>
<path d="M36.5 30.5V58.625" stroke="#F12E45" stroke-width="4" stroke-linecap="round" stroke-linejoin="round"/>
<path d="M62.7188 50.4689C65.7667 48.8072 68.1745 46.1779 69.5622 42.9958C70.9498 39.8138 71.2382 36.2602 70.382 32.896C69.5257 29.5318 67.5735 26.5486 64.8334 24.4172C62.0934 22.2857 58.7215 21.1274 55.2501 21.1251H51.3126C50.3667 17.4665 48.6037 14.0699 46.1561 11.1907C43.7086 8.31154 40.6402 6.02466 37.1816 4.50203C33.723 2.9794 29.9643 2.26063 26.1879 2.39977C22.4116 2.5389 18.7159 3.53232 15.3787 5.30534C12.0416 7.07835 9.14978 9.58483 6.92075 12.6363C4.69172 15.6878 3.18347 19.2049 2.50937 22.9232C1.83528 26.6415 2.01289 30.4643 3.02885 34.1041C4.04481 37.7439 5.87269 41.106 8.37506 43.9376" stroke="#F12E45" stroke-width="4" stroke-linecap="round" stroke-linejoin="round"/>
<path d="M49 43L36.5 30.5L24 43" stroke="#F12E45" stroke-width="4" stroke-linecap="round" stroke-linejoin="round"/>
</svg>
